<?xml version="1.0" standalone="no"?>
<!DOCTYPE svg PUBLIC "-//W3C//DTD SVG 20010904//EN"
 "http://www.w3.org/TR/2001/REC-SVG-20010904/DTD/svg10.dtd">
<svg version="1.0" xmlns="http://www.w3.org/2000/svg" fill="none" stroke="currentColor"
 width="200.000000pt" height="200.000000pt" viewBox="0 0 200.000000 200.000000"
 preserveAspectRatio="xMidYMid meet">

<g transform="translate(0.000000,200.000000) scale(0.100000,-0.100000)">
<path d="M976 1934 c-9 -8 -16 -24 -16 -34 0 -10 -9 -21 -20 -25 -31 -10 -68
-61 -75 -104 -14 -84 37 -157 122 -172 53 -10 73 -29 73 -69 0 -78 -111 -79
-122 -1 -7 51 -69 53 -76 2 -5 -33 34 -104 67 -124 16 -9 31 -27 33 -39 2 -11
11 -26 21 -32 22 -14 51 3 55 32 2 12 17 30 33 39 31 19 69 85 69 121 0 38
-31 102 -61 123 -16 11 -46 23 -66 26 -21 3 -46 13 -55 21 -24 20 -23 67 2 92
37 37 84 19 100 -39 10 -40 29 -55 55 -45 39 15 23 107 -26 148 -17 14 -35 26
-40 26 -5 0 -9 9 -9 19 0 20 -24 51 -40 51 -5 0 -16 -7 -24 -16z"/>
<path d="M540 1344 c-16 -42 -11 -97 13 -144 22 -45 37 -56 111 -85 30 -12 37
-18 28 -27 -9 -9 -33 -5 -99 15 -132 41 -212 34 -278 -25 -83 -72 -11 -157
131 -158 49 0 73 6 117 29 68 36 77 29 77 -56 0 -80 22 -145 72 -210 51 -67
57 -110 29 -192 -50 -146 -7 -257 125 -322 86 -43 150 -48 227 -19 160 60 220
181 167 336 -29 88 -23 130 28 197 50 65 72 130 72 210 0 85 9 92 77 56 159
-83 367 25 248 129 -66 59 -146 66 -278 25 -66 -20 -90 -24 -99 -15 -9 9 -2
15 28 27 74 29 89 40 112 85 23 47 28 102 12 144 -14 38 -34 32 -75 -25 -60
-84 -153 -108 -270 -69 -37 12 -89 22 -115 22 -26 0 -78 -10 -115 -22 -117
-39 -210 -15 -270 69 -41 57 -61 63 -75 25z m577 -200 c69 -33 86 -61 81 -135
-4 -54 -8 -62 -55 -111 -62 -66 -77 -109 -77 -218 -1 -110 9 -153 43 -193 66
-76 73 -129 25 -193 -63 -85 -205 -85 -268 0 -48 64 -41 117 25 193 34 40 44
83 43 193 0 109 -16 152 -77 217 -46 48 -51 59 -55 109 -6 66 8 96 57 126 83
52 166 55 258 12z m-289 -326 c30 -30 0 -75 -43 -64 -19 5 -25 13 -25 35 0 38
41 56 68 29z m410 -25 c3 -28 -1 -33 -23 -39 -29 -7 -55 10 -55 35 0 25 22 42
50 39 20 -2 26 -9 28 -35z"/>
<path d="M884 358 c-7 -11 21 -38 41 -38 7 0 17 -10 23 -22 10 -22 11 -21 11
9 1 17 -6 39 -15 47 -18 19 -50 21 -60 4z"/>
<path d="M1046 355 c-9 -9 -16 -31 -15 -48 0 -29 1 -30 10 -11 6 11 24 25 41
32 17 6 28 17 26 24 -7 20 -43 21 -62 3z"/>
</g>
</svg>
